<?xml version="1.0" encoding="UTF-8" standalone="no"?>
<!-- Created with Inkscape (http://www.inkscape.org/) -->

<svg
   xmlns:dc="http://purl.org/dc/elements/1.1/"
   xmlns:cc="http://creativecommons.org/ns#"
   xmlns:rdf="http://www.w3.org/1999/02/22-rdf-syntax-ns#"
   xmlns:svg="http://www.w3.org/2000/svg"
   xmlns="http://www.w3.org/2000/svg"
   xmlns:sodipodi="http://sodipodi.sourceforge.net/DTD/sodipodi-0.dtd"
   xmlns:inkscape="http://www.inkscape.org/namespaces/inkscape"
   width="42.091217mm"
   height="54.269833mm"
   viewBox="0 0 149.14211 192.29468"
   id="svg2"
   version="1.1"
   inkscape:version="0.92.2 5c3e80d, 2017-08-06"
   sodipodi:docname="logo_bw_bg.svg"
   style="enable-background:new"
   inkscape:export-filename="/home/georg/CTF/logo/logo_green.png"
   inkscape:export-xdpi="179"
   inkscape:export-ydpi="179">
  <defs
     id="defs4" />
  <sodipodi:namedview
     id="base"
     pagecolor="#ffffff"
     bordercolor="#666666"
     borderopacity="1.0"
     inkscape:pageopacity="0.0"
     inkscape:pageshadow="2"
     inkscape:zoom="3.959798"
     inkscape:cx="42.782791"
     inkscape:cy="103.77405"
     inkscape:document-units="px"
     inkscape:current-layer="layer1"
     showgrid="false"
     inkscape:window-width="1920"
     inkscape:window-height="1121"
     inkscape:window-x="0"
     inkscape:window-y="0"
     inkscape:window-maximized="1"
     fit-margin-top="1"
     fit-margin-left="1"
     fit-margin-right="1"
     fit-margin-bottom="1"
     inkscape:pagecheckerboard="true" />
  <metadata
     id="metadata7">
    <rdf:RDF>
      <cc:Work
         rdf:about="">
        <dc:format>image/svg+xml</dc:format>
        <dc:type
           rdf:resource="http://purl.org/dc/dcmitype/StillImage" />
        <dc:title />
      </cc:Work>
    </rdf:RDF>
  </metadata>
  <g
     inkscape:groupmode="layer"
     id="layer1"
     inkscape:label="bg"
     style="display:inline">
    <path
       style="fill:#ffffff;fill-opacity:1;stroke:none;stroke-width:0.9375px;stroke-linecap:butt;stroke-linejoin:miter;stroke-opacity:1"
       d="m 49.08871,12.07736 c 34.493762,-4.3366026 70.38733,-12.56535987 87.163,32.36299 6.52565,14.635749 5.38973,40.380785 3.10334,67.794 -7.77733,42.61538 -31.69521,69.97363 -37.48586,74.34686 -9.930045,1.27518 -20.495718,0.008 -31.31473,-2.27284 L 56.03352,167.26205 C 41.519931,159.94316 39.961458,143.96257 21.8249,125.99142 L 16.741071,122.317 10.212053,110.26343 C 0.68373664,92.7087 1.3511247,72.808294 17.26892,72.68652 23.270601,41.368152 30.354218,12.661355 49.08871,12.07736"
       id="path4550"
       inkscape:connector-curvature="0"
       sodipodi:nodetypes="ccccccccccc" />
  </g>
  <g
     inkscape:groupmode="layer"
     id="layer8"
     inkscape:label="shadow"
     style="display:inline;opacity:1"
     transform="translate(-245.11821,-60.265683)">
    <path
       style="opacity:1;fill:#000000;fill-opacity:0.13333333;fill-rule:evenodd;stroke:none;stroke-width:1px;stroke-linecap:butt;stroke-linejoin:miter;stroke-opacity:0.13333333"
       d="m 385.87827,136.36146 -8.08122,-8.83883 c -0.0427,-8.29167 -1.2243,-16.58334 -4.29315,-24.87501 -14.07958,-8.044995 -29.06255,-12.115055 -44.82552,-12.753177 -24.03995,9.928112 -24.83627,26.659237 -21.59201,44.572977 -7.00034,17.01422 -8.19861,14.84254 -13.45322,19.6367 1.44264,18.45427 -11.08609,50.99033 4.61439,57.76625 l 2.90419,15.65736 c -11.56133,-5.90681 -21.99408,-28.29574 -31.36835,-40.3398 13.36602,-10.92753 0.16576,-36.2907 11.42155,-41.96597 l 4.66824,-57.726629 27.7792,-14.647212 33.33503,5.050763 31.31473,14.142136 c 4.51917,14.773482 6.00663,29.546962 7.57614,44.320442 z"
       id="path4199"
       inkscape:connector-curvature="0"
       sodipodi:nodetypes="ccccccccccccccc" />
    <path
       style="display:inline;opacity:1;fill:#000000;fill-opacity:0.26666667;fill-rule:evenodd;stroke:none;stroke-width:1px;stroke-linecap:round;stroke-linejoin:miter;stroke-opacity:0.26666667;enable-background:new"
       d="m 267.05908,153.66033 c -12.38274,-23.49059 -9.09454,21.3274 2.65166,21.2132 -1.4963,-7.20716 -3.9865,-14.63518 -2.65166,-21.2132 z"
       id="path4156-9"
       inkscape:connector-curvature="0"
       sodipodi:nodetypes="ccc" />
    <path
       style="opacity:1;fill:#000000;fill-opacity:0.26666667;fill-rule:evenodd;stroke:none;stroke-width:1px;stroke-linecap:butt;stroke-linejoin:miter;stroke-opacity:1"
       d="m 305.19234,232.07342 c 11.99403,3.09416 39.26097,16.54177 50.6339,3.15672 l -8.83884,11.23795 c -10.9547,2.51856 -22.57453,-0.91947 -32.57742,-2.52539 z"
       id="path4259"
       inkscape:connector-curvature="0"
       sodipodi:nodetypes="ccccc" />
    <path
       style="opacity:1;fill:#000000;fill-opacity:0.26666667;fill-rule:evenodd;stroke:none;stroke-width:1px;stroke-linecap:butt;stroke-linejoin:miter;stroke-opacity:0.26666667"
       d="m 326.27927,226.64384 c 7.79521,0.12578 16.52576,-2.08681 22.4759,2.65165 l 11.86929,-8.20748 c -15.15898,4.71881 -28.95543,-0.10009 -42.80521,-4.54569 z"
       id="path4261"
       inkscape:connector-curvature="0"
       sodipodi:nodetypes="ccccc" />
  </g>
  <g
     inkscape:groupmode="layer"
     id="layer11"
     inkscape:label="nose"
     style="display:inline"
     transform="translate(-245.11821,-60.265683)">
    <path
       transform="translate(0,-308.26772)"
       style="display:inline;opacity:1;fill:none;fill-rule:evenodd;stroke:#000000;stroke-width:2;stroke-linecap:butt;stroke-linejoin:miter;stroke-miterlimit:4;stroke-dasharray:none;stroke-opacity:1;enable-background:new"
       d="m 333.60288,450.05875 c 16.44004,1.63715 0.60725,30.24508 -0.94702,45.07805 10.03783,3.86449 10.8802,9.13108 27.14785,3.53554 0.64376,-14.63721 -2.81435,-43.47504 3.85121,-43.05775"
       id="path4177"
       inkscape:connector-curvature="0"
       sodipodi:nodetypes="cccc" />
  </g>
  <g
     inkscape:groupmode="layer"
     id="layer2"
     inkscape:label="Face"
     style="display:inline"
     transform="translate(-245.11821,-368.5334)">
    <path
       style="display:inline;opacity:1;fill:#000806;fill-opacity:1;fill-rule:evenodd;stroke:#000000;stroke-width:1px;stroke-linecap:butt;stroke-linejoin:miter;stroke-opacity:1;enable-background:new"
       d="m 262.38713,441.21992 c 11.26513,8.54674 12.60201,28.12487 11.86929,50.00255 16.93854,-39.43819 -1.83162,-78.0035 26.76904,-101.52034 25.8831,-7.74843 45.03663,0.048 67.17514,17.1726 l 5.05077,-5.55584 8.58629,13.13198 c 5.03682,-43.99849 -71.43835,-49.64778 -87.63074,-33.84011 -25.44183,2.07918 -25.0296,33.90823 -31.81979,60.60916 z"
       id="path4153"
       inkscape:connector-curvature="0"
       sodipodi:nodetypes="cccccccc" />
    <path
       style="display:inline;opacity:1;fill:#000000;fill-opacity:1;fill-rule:evenodd;stroke:#000000;stroke-width:1px;stroke-linecap:butt;stroke-linejoin:miter;stroke-opacity:1;enable-background:new"
       d="m 296.50779,520.07885 c 22.71481,-2.63026 54.93217,-14.66715 73.66553,7.91842 2.754,-0.40076 5.96786,-1.09928 6.99492,-3.22698 -1.20948,-14.19478 -4.08925,-18.18363 -17.52538,-25.97951 -8.967,5.92609 -19.63506,1.09317 -26.78572,-3.57143 -24.53583,1.20055 -22.00635,7.68899 -36.34935,24.8595 z"
       id="path4161"
       inkscape:connector-curvature="0"
       sodipodi:nodetypes="cccccc" />
    <path
       style="display:inline;opacity:1;fill:#000000;fill-opacity:0.13333333;fill-rule:evenodd;stroke:none;stroke-width:0;stroke-linecap:butt;stroke-linejoin:miter;stroke-miterlimit:4;stroke-dasharray:none;stroke-opacity:0.26666667;enable-background:new"
       d="m 312.89475,451.82652 c -9.05507,15.17966 36.03635,12.59028 11.87163,-1.56738 -3.39431,-4.53547 -1.98351,-1.00424 -11.87163,1.56738 z"
       id="path4171"
       inkscape:connector-curvature="0"
       sodipodi:nodetypes="ccc" />
    <ellipse
       style="color:#000000;display:inline;overflow:visible;visibility:visible;opacity:1;fill:#000000;fill-opacity:1;fill-rule:nonzero;stroke:none;stroke-width:0.30000001;stroke-linecap:round;stroke-linejoin:round;stroke-miterlimit:4;stroke-dasharray:none;stroke-dashoffset:0;stroke-opacity:1;marker:none;enable-background:accumulate"
       id="path4163"
       cx="319.27136"
       cy="453.72055"
       rx="4.7982244"
       ry="2.9673231" />
    <path
       style="display:inline;opacity:1;fill:#000000;fill-opacity:0.13333333;fill-rule:evenodd;stroke:none;stroke-width:0;stroke-linecap:butt;stroke-linejoin:miter;stroke-miterlimit:0;stroke-dasharray:none;stroke-opacity:0.26666667;enable-background:new"
       d="m 364.3494,456.18279 c -18.06151,10.85106 29.52011,21.69498 9.78585,1.0733 z"
       id="path4175"
       inkscape:connector-curvature="0"
       sodipodi:nodetypes="ccc" />
    <ellipse
       style="color:#000000;display:inline;overflow:visible;visibility:visible;opacity:1;fill:#000000;fill-opacity:1;fill-rule:nonzero;stroke:none;stroke-width:0.30000001;stroke-linecap:round;stroke-linejoin:round;stroke-miterlimit:4;stroke-dasharray:none;stroke-dashoffset:0;stroke-opacity:1;marker:none;enable-background:accumulate"
       id="path4165"
       cx="368.30838"
       cy="459.73364"
       rx="4.1790257"
       ry="2.7454231" />
    <path
       style="display:inline;opacity:1;fill:#000000;fill-opacity:1;fill-rule:evenodd;stroke:#000000;stroke-width:1px;stroke-linecap:butt;stroke-linejoin:miter;stroke-opacity:1;enable-background:new"
       d="m 300.01531,454.09936 c 3.69515,-0.72591 7.32329,-1.30138 10.92844,-1.73864 3.60515,-0.43726 6.83016,0.15655 10.4333,-0.0165 7.63602,0.59952 15.48078,5.90166 23.02632,5.46447 l -3.22435,-9.51767 c -7.82001,-2.0203 -12.76403,-6.06091 -17.9302,-8.08122 l -3.78808,-2.27284 c -10.2208,4.80382 -15.91044,6.00997 -19.44543,16.16244 z"
       id="path4155"
       inkscape:connector-curvature="0"
       sodipodi:nodetypes="cscccccc" />
    <path
       style="display:inline;opacity:1;fill:#000000;fill-opacity:1;fill-rule:evenodd;stroke:#000000;stroke-width:1px;stroke-linecap:butt;stroke-linejoin:miter;stroke-opacity:1;enable-background:new"
       d="m 356.07878,458.0137 c 5.83673,-0.0878 9.38269,-1.47954 28.91561,5.6821 6.56631,-3.77437 3.13937,-7.50917 4.92449,-14.39467 -2.2841,1.42271 -3.96318,-5.5107 -9.09137,-1.76777 -7.96362,0.12166 -22.92969,3.20388 -24.74873,10.48034 z"
       id="path4157"
       inkscape:connector-curvature="0"
       sodipodi:nodetypes="ccccc" />
  </g>
  <g
     inkscape:groupmode="layer"
     id="layer3"
     inkscape:label="head"
     style="display:inline"
     transform="translate(-245.11821,-368.5334)">
    <path
       style="display:inline;opacity:1;fill:none;fill-rule:evenodd;stroke:#000000;stroke-width:2;stroke-linecap:butt;stroke-linejoin:miter;stroke-miterlimit:4;stroke-dasharray:none;stroke-opacity:1;enable-background:new"
       d="m 265.79638,442.92454 c -20.74091,-6.90003 -19.43847,23.82752 -7.59998,40.70846 5.24695,9.47183 1.86508,5.90648 8.73641,10.87246 6.0651,1.18645 8.20619,-5.87044 8.42846,-7.76555"
       id="path4201"
       inkscape:connector-curvature="0"
       sodipodi:nodetypes="cccc" />
    <path
       style="display:inline;opacity:1;fill:none;fill-rule:evenodd;stroke:#000000;stroke-width:2;stroke-linecap:butt;stroke-linejoin:miter;stroke-miterlimit:4;stroke-dasharray:none;stroke-opacity:1;enable-background:new"
       d="m 266.94311,494.52482 c 13.45988,8.20343 14.67144,26.46261 29.16683,37.26437 8.00834,5.272 11.24643,14.51156 19.56273,21.05258 11.65897,2.43611 23.369,4.94243 31.31473,2.27284 22.14276,-22.46135 31.28754,-50.15171 37.48586,-74.34686 -0.0931,-22.1615 5.46709,-41.99937 -3.10334,-67.794"
       id="path4203"
       inkscape:connector-curvature="0"
       sodipodi:nodetypes="cccccc" />
    <path
       style="fill:none;fill-rule:evenodd;stroke:#000000;stroke-width:1px;stroke-linecap:round;stroke-linejoin:miter;stroke-opacity:1"
       d="m 267.05908,461.92805 c -12.38274,-23.49059 -9.09454,21.3274 2.65166,21.2132"
       id="path4156"
       inkscape:connector-curvature="0"
       sodipodi:nodetypes="cc" />
  </g>
</svg>
